<svg width="31" height="30" viewBox="0 0 31 30" fill="none" xmlns="http://www.w3.org/2000/svg">
<g opacity="0.6">
<path d="M23.2145 24.3113C23.5768 24.6736 24.1642 24.6736 24.5264 24.3113C24.8887 23.9491 24.8887 23.3617 24.5264 22.9995L23.2145 24.3113ZM21.4587 14.2554C21.4587 18.1149 18.33 21.2436 14.4705 21.2436V23.0989C19.3546 23.0989 23.3139 19.1395 23.3139 14.2554H21.4587ZM14.4705 21.2436C10.611 21.2436 7.48232 18.1149 7.48232 14.2554H5.62706C5.62706 19.1395 9.5864 23.0989 14.4705 23.0989V21.2436ZM7.48232 14.2554C7.48232 10.3959 10.611 7.26723 14.4705 7.26723V5.41197C9.5864 5.41197 5.62706 9.37131 5.62706 14.2554H7.48232ZM14.4705 7.26723C18.33 7.26723 21.4587 10.3959 21.4587 14.2554H23.3139C23.3139 9.37131 19.3546 5.41197 14.4705 5.41197V7.26723ZM19.504 20.6008L23.2145 24.3113L24.5264 22.9995L20.8159 19.2889L19.504 20.6008Z" fill="#666666"/>
</g>
</svg>
